REM DIRINDEX 1\2,1\4,1\5,1\6,1\7,1\3\8,1\3\9,1\3\10
REM DIRNAME folder01,folder02,folder03,folder04,folder05,folder06,folder07,folder08,folder09,folder10
TITLE ""
FILE "DB4500_5th_6C_45.mp3" MP3
  TRACK 01 AUDIO
    TITLE "0:"
    INDEX 01 00:00:00
  TRACK 02 AUDIO
    TITLE "8:cjc113_5094"
    INDEX 01 00:00:01
  TRACK 03 AUDIO
    TITLE "0:"
    INDEX 01 00:01:09
  TRACK 04 AUDIO
    TITLE "9:cjc113_5095"
    INDEX 01 00:01:26
  TRACK 05 AUDIO
    TITLE "0:"
    INDEX 01 00:02:45
  TRACK 06 AUDIO
    TITLE "10:cjc113_5096"
    INDEX 01 00:02:63
  TRACK 07 AUDIO
    TITLE "0:"
    INDEX 01 00:05:69
  TRACK 08 AUDIO
    TITLE "10:cjc113_5097"
    INDEX 01 00:06:35
  TRACK 09 AUDIO
    TITLE "0:"
    INDEX 01 00:09:42
  TRACK 10 AUDIO
    TITLE "8:cjc113_5098"
    INDEX 01 00:10:10
  TRACK 11 AUDIO
    TITLE "0:"
    INDEX 01 00:11:27
  TRACK 12 AUDIO
    TITLE "9:cjc113_5099"
    INDEX 01 00:11:44
  TRACK 13 AUDIO
    TITLE "0:"
    INDEX 01 00:12:54
  TRACK 14 AUDIO
    TITLE "10:cjc113_5100"
    INDEX 01 00:12:73
  TRACK 15 AUDIO
    TITLE "0:"
    INDEX 01 00:16:12
  TRACK 16 AUDIO
    TITLE "8:cjc113_5101"
    INDEX 01 00:16:51
  TRACK 17 AUDIO
    TITLE "0:"
    INDEX 01 00:18:13
  TRACK 18 AUDIO
    TITLE "9:cjc113_5102"
    INDEX 01 00:18:25
  TRACK 19 AUDIO
    TITLE "0:"
    INDEX 01 00:20:04
  TRACK 20 AUDIO
    TITLE "10:cjc113_5103"
    INDEX 01 00:20:22
  TRACK 21 AUDIO
    TITLE "0:"
    INDEX 01 00:23:67
  TRACK 22 AUDIO
    TITLE "8:cjc113_5104"
    INDEX 01 00:24:31
  TRACK 23 AUDIO
    TITLE "0:"
    INDEX 01 00:25:48
  TRACK 24 AUDIO
    TITLE "9:cjc113_5105"
    INDEX 01 00:25:66
  TRACK 25 AUDIO
    TITLE "0:"
    INDEX 01 00:27:04
  TRACK 26 AUDIO
    TITLE "10:cjc113_5106"
    INDEX 01 00:27:20
  TRACK 27 AUDIO
    TITLE "0:"
    INDEX 01 00:31:39
  TRACK 28 AUDIO
    TITLE "8:cjc113_5107"
    INDEX 01 00:32:09
  TRACK 29 AUDIO
    TITLE "0:"
    INDEX 01 00:33:36
  TRACK 30 AUDIO
    TITLE "9:cjc113_5108"
    INDEX 01 00:33:52
  TRACK 31 AUDIO
    TITLE "0:"
    INDEX 01 00:35:31
  TRACK 32 AUDIO
    TITLE "10:cjc113_5109"
    INDEX 01 00:35:45
  TRACK 33 AUDIO
    TITLE "0:"
    INDEX 01 00:38:61
  TRACK 34 AUDIO
    TITLE "8:cjc113_5110"
    INDEX 01 00:39:25
  TRACK 35 AUDIO
    TITLE "0:"
    INDEX 01 00:42:12
  TRACK 36 AUDIO
    TITLE "9:cjc113_5111"
    INDEX 01 00:42:27
  TRACK 37 AUDIO
    TITLE "0:"
    INDEX 01 00:43:48
  TRACK 38 AUDIO
    TITLE "10:cjc113_5112"
    INDEX 01 00:43:60
  TRACK 39 AUDIO
    TITLE "0:"
    INDEX 01 00:46:51
  TRACK 40 AUDIO
    TITLE "8:cjc113_5113"
    INDEX 01 00:47:17
  TRACK 41 AUDIO
    TITLE "0:"
    INDEX 01 00:48:42
  TRACK 42 AUDIO
    TITLE "9:cjc113_5114"
    INDEX 01 00:48:59
  TRACK 43 AUDIO
    TITLE "0:"
    INDEX 01 00:50:19
  TRACK 44 AUDIO
    TITLE "10:cjc113_5115"
    INDEX 01 00:50:35
  TRACK 45 AUDIO
    TITLE "0:"
    INDEX 01 00:53:09
  TRACK 46 AUDIO
    TITLE "8:cjc113_5116"
    INDEX 01 00:53:53
  TRACK 47 AUDIO
    TITLE "0:"
    INDEX 01 00:54:66
  TRACK 48 AUDIO
    TITLE "9:cjc113_5117"
    INDEX 01 00:55:08
  TRACK 49 AUDIO
    TITLE "0:"
    INDEX 01 00:56:57
  TRACK 50 AUDIO
    TITLE "10:cjc113_5118"
    INDEX 01 00:56:69
  TRACK 51 AUDIO
    TITLE "0:"
    INDEX 01 01:00:70
  TRACK 52 AUDIO
    TITLE "8:cjc113_5119"
    INDEX 01 01:01:34
  TRACK 53 AUDIO
    TITLE "0:"
    INDEX 01 01:02:54
  TRACK 54 AUDIO
    TITLE "9:cjc113_5120"
    INDEX 01 01:02:69
  TRACK 55 AUDIO
    TITLE "0:"
    INDEX 01 01:04:25
  TRACK 56 AUDIO
    TITLE "10:cjc113_5121"
    INDEX 01 01:04:37
  TRACK 57 AUDIO
    TITLE "0:"
    INDEX 01 01:07:66
  TRACK 58 AUDIO
    TITLE "8:cjc113_5122"
    INDEX 01 01:08:33
  TRACK 59 AUDIO
    TITLE "0:"
    INDEX 01 01:09:42
  TRACK 60 AUDIO
    TITLE "9:cjc113_5123"
    INDEX 01 01:09:59
  TRACK 61 AUDIO
    TITLE "0:"
    INDEX 01 01:11:58
  TRACK 62 AUDIO
    TITLE "10:cjc113_5124"
    INDEX 01 01:11:74
  TRACK 63 AUDIO
    TITLE "0:"
    INDEX 01 01:15:39
  TRACK 64 AUDIO
    TITLE "8:cjc113_5125"
    INDEX 01 01:16:05
  TRACK 65 AUDIO
    TITLE "0:"
    INDEX 01 01:17:16
  TRACK 66 AUDIO
    TITLE "9:cjc113_5126"
    INDEX 01 01:17:28
  TRACK 67 AUDIO
    TITLE "0:"
    INDEX 01 01:18:66
  TRACK 68 AUDIO
    TITLE "10:cjc113_5127"
    INDEX 01 01:19:07
  TRACK 69 AUDIO
    TITLE "0:"
    INDEX 01 01:21:61
  TRACK 70 AUDIO
    TITLE "8:cjc113_5128"
    INDEX 01 01:22:23
  TRACK 71 AUDIO
    TITLE "0:"
    INDEX 01 01:23:40
  TRACK 72 AUDIO
    TITLE "9:cjc113_5129"
    INDEX 01 01:23:56
  TRACK 73 AUDIO
    TITLE "0:"
    INDEX 01 01:24:67
  TRACK 74 AUDIO
    TITLE "10:cjc113_5130"
    INDEX 01 01:25:08
  TRACK 75 AUDIO
    TITLE "0:"
    INDEX 01 01:29:01
  TRACK 76 AUDIO
    TITLE "8:cjc113_5131"
    INDEX 01 01:29:41
  TRACK 77 AUDIO
    TITLE "0:"
    INDEX 01 01:30:48
  TRACK 78 AUDIO
    TITLE "9:cjc113_5132"
    INDEX 01 01:30:67
  TRACK 79 AUDIO
    TITLE "0:"
    INDEX 01 01:32:06
  TRACK 80 AUDIO
    TITLE "10:cjc113_5133"
    INDEX 01 01:32:23
  TRACK 81 AUDIO
    TITLE "0:"
    INDEX 01 01:35:18
  TRACK 82 AUDIO
    TITLE "8:cjc113_5134"
    INDEX 01 01:35:57
  TRACK 83 AUDIO
    TITLE "0:"
    INDEX 01 01:36:64
  TRACK 84 AUDIO
    TITLE "9:cjc113_5135"
    INDEX 01 01:37:03
  TRACK 85 AUDIO
    TITLE "0:"
    INDEX 01 01:38:57
  TRACK 86 AUDIO
    TITLE "10:cjc113_5136"
    INDEX 01 01:38:73
  TRACK 87 AUDIO
    TITLE "0:"
    INDEX 01 01:41:52
